<svg width="125" height="36" viewBox="0 0 125 36" fill="none" xmlns="http://www.w3.org/2000/svg">
<path d="M51.4163 14.1197C51.3566 13.5181 51.1006 13.0508 50.6482 12.7177C50.1958 12.3846 49.5818 12.218 48.8062 12.218C48.2792 12.218 47.8343 12.2926 47.4713 12.4418C47.1084 12.5859 46.83 12.7873 46.6361 13.0458C46.4472 13.3043 46.3527 13.5977 46.3527 13.9258C46.3428 14.1992 46.3999 14.4379 46.5242 14.6417C46.6535 14.8455 46.83 15.022 47.0537 15.1712C47.2774 15.3153 47.536 15.4421 47.8293 15.5515C48.1226 15.6559 48.4358 15.7454 48.7689 15.82L50.1411 16.1481C50.8073 16.2972 51.4188 16.4961 51.9756 16.7447C52.5324 16.9933 53.0146 17.299 53.4223 17.6619C53.83 18.0249 54.1457 18.4524 54.3694 18.9446C54.5981 19.4368 54.7149 20.0011 54.7199 20.6374C54.7149 21.5721 54.4763 22.3825 54.004 23.0685C53.5367 23.7496 52.8605 24.2791 51.9756 24.657C51.0956 25.0298 50.0342 25.2163 48.7913 25.2163C47.5583 25.2163 46.4845 25.0273 45.5697 24.6495C44.6599 24.2717 43.949 23.7124 43.4369 22.9716C42.9298 22.2259 42.6638 21.3036 42.6389 20.2049H45.7636C45.7984 20.717 45.945 21.1445 46.2036 21.4876C46.4671 21.8256 46.8176 22.0817 47.2551 22.2557C47.6975 22.4247 48.1972 22.5092 48.754 22.5092C49.3009 22.5092 49.7757 22.4297 50.1784 22.2706C50.586 22.1115 50.9017 21.8903 51.1254 21.6069C51.3492 21.3235 51.461 20.9979 51.461 20.63C51.461 20.2869 51.3591 19.9986 51.1553 19.7649C50.9564 19.5312 50.6631 19.3324 50.2753 19.1683C49.8925 19.0043 49.4227 18.8551 48.8659 18.7209L47.2029 18.3033C45.9152 17.9901 44.8985 17.5004 44.1528 16.8342C43.407 16.168 43.0367 15.2706 43.0416 14.142C43.0367 13.2173 43.2828 12.4094 43.7799 11.7184C44.282 11.0273 44.9706 10.4879 45.8456 10.1001C46.7206 9.71236 47.7149 9.51847 48.8286 9.51847C49.9621 9.51847 50.9514 9.71236 51.7966 10.1001C52.6468 10.4879 53.308 11.0273 53.7803 11.7184C54.2526 12.4094 54.4962 13.2099 54.5111 14.1197H51.4163ZM56.8322 29.2955V13.5455H59.9643V15.4695H60.106C60.2452 15.1612 60.4466 14.848 60.71 14.5298C60.9785 14.2067 61.3265 13.9382 61.7541 13.7244C62.1866 13.5057 62.7235 13.3963 63.3649 13.3963C64.2001 13.3963 64.9707 13.6151 65.6767 14.0526C66.3826 14.4851 66.9469 15.1388 67.3695 16.0138C67.7921 16.8839 68.0034 17.9751 68.0034 19.2876C68.0034 20.5653 67.7971 21.6442 67.3844 22.5241C66.9767 23.3991 66.4199 24.0629 65.714 24.5153C65.013 24.9627 64.2275 25.1864 63.3574 25.1864C62.7409 25.1864 62.2164 25.0845 61.7839 24.8807C61.3564 24.6768 61.0059 24.4208 60.7324 24.1126C60.459 23.7994 60.2502 23.4837 60.106 23.1655H60.0091V29.2955H56.8322ZM59.9419 19.2727C59.9419 19.9538 60.0364 20.5479 60.2253 21.055C60.4142 21.5621 60.6877 21.9574 61.0456 22.2408C61.4036 22.5192 61.8386 22.6584 62.3507 22.6584C62.8677 22.6584 63.3052 22.5167 63.6632 22.2333C64.0211 21.945 64.2921 21.5472 64.476 21.0401C64.665 20.5281 64.7594 19.9389 64.7594 19.2727C64.7594 18.6115 64.6674 18.0298 64.4835 17.5277C64.2995 17.0256 64.0286 16.6328 63.6706 16.3494C63.3127 16.0661 62.8727 15.9244 62.3507 15.9244C61.8336 15.9244 61.3961 16.0611 61.0382 16.3345C60.6852 16.608 60.4142 16.9957 60.2253 17.4979C60.0364 18 59.9419 18.5916 59.9419 19.2727ZM75.2967 25.2237C74.1383 25.2237 73.1365 24.9776 72.2914 24.4854C71.4512 23.9883 70.8024 23.2972 70.345 22.4123C69.8876 21.5224 69.6589 20.4908 69.6589 19.3175C69.6589 18.1342 69.8876 17.1001 70.345 16.2152C70.8024 15.3253 71.4512 14.6342 72.2914 14.142C73.1365 13.6449 74.1383 13.3963 75.2967 13.3963C76.4551 13.3963 77.4544 13.6449 78.2946 14.142C79.1397 14.6342 79.791 15.3253 80.2484 16.2152C80.7058 17.1001 80.9345 18.1342 80.9345 19.3175C80.9345 20.4908 80.7058 21.5224 80.2484 22.4123C79.791 23.2972 79.1397 23.9883 78.2946 24.4854C77.4544 24.9776 76.4551 25.2237 75.2967 25.2237ZM75.3116 22.7628C75.8386 22.7628 76.2786 22.6136 76.6316 22.3153C76.9846 22.0121 77.2505 21.5994 77.4295 21.0774C77.6135 20.5554 77.7054 19.9613 77.7054 19.2951C77.7054 18.6289 77.6135 18.0348 77.4295 17.5128C77.2505 16.9908 76.9846 16.5781 76.6316 16.2749C76.2786 15.9716 75.8386 15.82 75.3116 15.82C74.7797 15.82 74.3322 15.9716 73.9693 16.2749C73.6113 16.5781 73.3404 16.9908 73.1564 17.5128C72.9775 18.0348 72.888 18.6289 72.888 19.2951C72.888 19.9613 72.9775 20.5554 73.1564 21.0774C73.3404 21.5994 73.6113 22.0121 73.9693 22.3153C74.3322 22.6136 74.7797 22.7628 75.3116 22.7628ZM89.0929 13.5455V15.9318H82.1948V13.5455H89.0929ZM83.7608 10.8011H86.9377V21.4801C86.9377 21.7734 86.9824 22.0021 87.0719 22.1662C87.1614 22.3253 87.2857 22.4371 87.4448 22.5018C87.6088 22.5664 87.7978 22.5987 88.0115 22.5987C88.1607 22.5987 88.3098 22.5863 88.459 22.5614C88.6081 22.5316 88.7225 22.5092 88.802 22.4943L89.3017 24.8583C89.1426 24.908 88.9189 24.9652 88.6305 25.0298C88.3422 25.0994 87.9917 25.1417 87.579 25.1566C86.8134 25.1864 86.1422 25.0845 85.5655 24.8509C84.9938 24.6172 84.5488 24.2543 84.2306 23.7621C83.9125 23.2699 83.7559 22.6484 83.7608 21.8977V10.8011ZM91.1623 25V13.5455H94.3391V25H91.1623ZM92.7582 12.0689C92.2859 12.0689 91.8807 11.9123 91.5426 11.5991C91.2095 11.2809 91.043 10.9006 91.043 10.4581C91.043 10.0206 91.2095 9.64524 91.5426 9.33203C91.8807 9.01385 92.2859 8.85476 92.7582 8.85476C93.2305 8.85476 93.6332 9.01385 93.9663 9.33203C94.3043 9.64524 94.4734 10.0206 94.4734 10.4581C94.4734 10.9006 94.3043 11.2809 93.9663 11.5991C93.6332 11.9123 93.2305 12.0689 92.7582 12.0689ZM103.044 13.5455V15.9318H95.9742V13.5455H103.044ZM97.5924 25V12.7177C97.5924 11.8874 97.754 11.1989 98.0771 10.652C98.4053 10.1051 98.8527 9.69496 99.4195 9.42152C99.9862 9.14808 100.63 9.01136 101.351 9.01136C101.838 9.01136 102.283 9.04865 102.686 9.12322C103.093 9.1978 103.397 9.26491 103.596 9.32457L103.029 11.7109C102.905 11.6712 102.75 11.6339 102.566 11.5991C102.388 11.5643 102.204 11.5469 102.015 11.5469C101.547 11.5469 101.222 11.6562 101.038 11.875C100.854 12.0888 100.762 12.3896 100.762 12.7773V25H97.5924ZM106.946 29.2955C106.543 29.2955 106.165 29.2631 105.812 29.1985C105.464 29.1388 105.176 29.0618 104.947 28.9673L105.663 26.5959C106.036 26.7102 106.372 26.7724 106.67 26.7823C106.973 26.7923 107.234 26.7227 107.453 26.5735C107.677 26.4244 107.858 26.1708 107.997 25.8129L108.184 25.3281L104.075 13.5455H107.416L109.787 21.9574H109.906L112.3 13.5455H115.664L111.211 26.2379C110.998 26.8544 110.707 27.3913 110.339 27.8487C109.976 28.3111 109.516 28.6665 108.959 28.9151C108.403 29.1687 107.731 29.2955 106.946 29.2955Z" fill="white"/>
<path d="M28.325 16.075C22.725 12.75 13.3625 12.4 8.025 14.0625C7.15 14.325 6.275 13.8 6.0125 13.0125C5.75 12.1375 6.275 11.2625 7.0625 11C13.275 9.1625 23.5125 9.5125 29.9875 13.3625C30.775 13.8 31.0375 14.85 30.6 15.6375C30.1625 16.25 29.1125 16.5125 28.325 16.075ZM28.15 20.975C27.7125 21.5875 26.925 21.85 26.3125 21.4125C21.5875 18.525 14.4125 17.65 8.9 19.4C8.2 19.575 7.4125 19.225 7.2375 18.525C7.0625 17.825 7.4125 17.0375 8.1125 16.8625C14.5 14.9375 22.375 15.9 27.8 19.225C28.325 19.4875 28.5875 20.3625 28.15 20.975ZM26.05 25.7875C25.7 26.3125 25.0875 26.4875 24.5625 26.1375C20.45 23.6 15.2875 23.075 9.1625 24.475C8.55 24.65 8.025 24.2125 7.85 23.6875C7.675 23.075 8.1125 22.55 8.6375 22.375C15.2875 20.8875 21.0625 21.5 25.6125 24.3C26.225 24.5625 26.3125 25.2625 26.05 25.7875ZM18 0.5C15.7019 0.5 13.4262 0.952651 11.303 1.83211C9.17984 2.71157 7.25066 4.00061 5.62563 5.62563C2.34374 8.90752 0.5 13.3587 0.5 18C0.5 22.6413 2.34374 27.0925 5.62563 30.3744C7.25066 31.9994 9.17984 33.2884 11.303 34.1679C13.4262 35.0474 15.7019 35.5 18 35.5C22.6413 35.5 27.0925 33.6563 30.3744 30.3744C33.6563 27.0925 35.5 22.6413 35.5 18C35.5 15.7019 35.0474 13.4262 34.1679 11.303C33.2884 9.17984 31.9994 7.25066 30.3744 5.62563C28.7493 4.00061 26.8202 2.71157 24.697 1.83211C22.5738 0.952651 20.2981 0.5 18 0.5Z" fill="white"/>
</svg>
